<svg width="120" height="40" viewBox="0 0 120 40" fill="none" xmlns="http://www.w3.org/2000/svg">
<g clip-path="url(#clip0_4_1750)">
<path d="M110.226 0.00013H9.62571C9.25901 0.00013 8.89671 0.00013 8.53098 0.00213C8.22483 0.00413 7.92112 0.00994 7.61203 0.01483C6.94055 0.0227318 6.27064 0.0818063 5.60813 0.19154C4.94656 0.303663 4.30571 0.515046 3.70725 0.81854C3.10953 1.1246 2.56338 1.5223 2.0886 1.9972C1.61134 2.47077 1.2135 3.01815 0.910384 3.61829C0.606434 4.21724 0.395674 4.85907 0.285384 5.52161C0.174045 6.18332 0.114132 6.85265 0.106184 7.52361C0.0969039 7.83021 0.0959239 8.13783 0.0910339 8.44447V31.5587C0.0959239 31.8692 0.0969039 32.17 0.106184 32.4806C0.114135 33.1516 0.174047 33.8209 0.285384 34.4825C0.39537 35.1455 0.606142 35.7877 0.910384 36.3868C1.21336 36.985 1.61125 37.5302 2.0886 38.0011C2.56158 38.4781 3.10809 38.8761 3.70725 39.1798C4.3057 39.4841 4.94648 39.6968 5.60813 39.8106C6.27075 39.9195 6.94059 39.9786 7.61203 39.9874C7.92112 39.9942 8.22483 39.9981 8.53098 39.9981C8.8967 40.0001 9.25903 40.0001 9.62571 40.0001H110.226C110.585 40.0001 110.95 40.0001 111.31 39.9981C111.615 39.9981 111.927 39.9942 112.232 39.9874C112.902 39.9791 113.57 39.92 114.232 39.8106C114.895 39.696 115.539 39.4834 116.14 39.1798C116.739 38.8759 117.285 38.478 117.757 38.0011C118.233 37.5284 118.632 36.9836 118.939 36.3868C119.241 35.7872 119.449 35.1451 119.558 34.4825C119.669 33.8208 119.731 33.1516 119.743 32.4806C119.747 32.17 119.747 31.8692 119.747 31.5587C119.755 31.1954 119.755 30.8341 119.755 30.4649V9.53626C119.755 9.17005 119.755 8.80677 119.747 8.44447C119.747 8.13783 119.747 7.83021 119.743 7.52357C119.731 6.85255 119.669 6.18337 119.558 5.52157C119.449 4.85941 119.24 4.21763 118.939 3.61825C118.321 2.41533 117.343 1.43616 116.14 0.81845C115.539 0.515697 114.895 0.30437 114.232 0.19145C113.571 0.0812328 112.902 0.0221378 112.232 0.01469C111.927 0.00981 111.615 0.00395 111.31 0.002C110.95 0 110.585 0.00013 110.226 0.00013Z" fill="#A6A6A6"/>
<path d="M8.53586 39.125C8.23118 39.125 7.93386 39.1211 7.63157 39.1143C7.00536 39.1061 6.3806 39.0516 5.76243 38.9512C5.18602 38.8519 4.62764 38.6673 4.10569 38.4033C3.58854 38.1415 3.11685 37.7983 2.70869 37.3867C2.29463 36.98 1.94991 36.5082 1.68818 35.9902C1.42357 35.4688 1.24045 34.9099 1.14518 34.333C1.04231 33.7131 0.986648 33.0863 0.978684 32.458C0.972344 32.2471 0.964044 31.5449 0.964044 31.5449V8.44434C0.964044 8.44434 0.972884 7.75293 0.978734 7.5498C0.986359 6.92248 1.0417 6.29665 1.14426 5.67773C1.2397 5.09925 1.42297 4.53875 1.68772 4.01563C1.94849 3.49794 2.2913 3.02586 2.70286 2.61768C3.11397 2.20562 3.58717 1.8606 4.1052 1.59521C4.62595 1.33209 5.18328 1.14873 5.75852 1.05127C6.37872 0.949836 7.00564 0.894996 7.63403 0.88721L8.53635 0.875H111.305L112.218 0.8877C112.841 0.895099 113.462 0.94945 114.076 1.05029C114.657 1.14898 115.221 1.33362 115.747 1.59814C116.785 2.13299 117.63 2.97916 118.162 4.01807C118.423 4.53758 118.603 5.09351 118.698 5.66699C118.801 6.29099 118.859 6.92174 118.871 7.5542C118.874 7.8374 118.874 8.1416 118.874 8.44434C118.882 8.81934 118.882 9.17627 118.882 9.53613V30.4648C118.882 30.8281 118.882 31.1826 118.874 31.54C118.874 31.8652 118.874 32.1631 118.87 32.4697C118.859 33.0909 118.802 33.7104 118.699 34.3232C118.606 34.9043 118.424 35.4675 118.159 35.9932C117.896 36.5056 117.553 36.9733 117.144 37.3789C116.735 37.7927 116.263 38.1379 115.744 38.4014C115.219 38.6674 114.657 38.8527 114.076 38.9512C113.458 39.0522 112.833 39.1067 112.207 39.1143C111.914 39.1211 111.608 39.125 111.31 39.125L110.226 39.127L8.53586 39.125Z" fill="black"/>
<path d="M24.8599 20.3006C24.8707 19.4659 25.0924 18.6475 25.5044 17.9216C25.9164 17.1956 26.5054 16.5857 27.2165 16.1485C26.7647 15.5034 26.1688 14.9724 25.476 14.5979C24.7831 14.2233 24.0125 14.0155 23.2253 13.9908C21.5461 13.8146 19.9181 14.9957 19.0624 14.9957C18.1901 14.9957 16.8726 14.0083 15.4539 14.0375C14.5362 14.0672 13.6419 14.334 12.858 14.8121C12.0741 15.2901 11.4275 15.9631 10.981 16.7654C9.04699 20.1138 10.4896 25.0349 12.3422 27.7415C13.2691 29.0668 14.3524 30.5473 15.7698 30.4948C17.1569 30.4372 17.6749 29.6103 19.3492 29.6103C21.008 29.6103 21.494 30.4948 22.9402 30.4614C24.4286 30.4372 25.3664 29.1302 26.2607 27.7923C26.9267 26.8479 27.4392 25.8042 27.7792 24.6997C26.9144 24.334 26.1765 23.7218 25.6574 22.9395C25.1383 22.1572 24.8609 21.2394 24.8599 20.3006Z" fill="white"/>
<path d="M22.1283 12.2108C22.9398 11.2366 23.3396 9.98445 23.2428 8.72021C22.003 8.85044 20.8577 9.44299 20.0352 10.3798C19.6331 10.8375 19.3251 11.3699 19.1288 11.9467C18.9326 12.5235 18.852 13.1333 18.8915 13.7412C19.5117 13.7476 20.1252 13.6132 20.6858 13.3481C21.2465 13.083 21.7397 12.6942 22.1283 12.2108Z" fill="white"/>
<path d="M42.3933 27.1397H37.6599L36.5232 30.4961H34.5183L39.0017 18.0781H41.0847L45.5681 30.4961H43.529L42.3933 27.1397ZM38.1501 25.5908H41.9021L40.0525 20.1436H40.0008L38.1501 25.5908Z" fill="white"/>
<path d="M55.2507 25.9697C55.2507 28.7832 53.7449 30.5908 51.4724 30.5908C50.8967 30.6209 50.3243 30.4883 49.8205 30.2082C49.3167 29.928 48.9019 29.5117 48.6238 29.0068H48.5808V33.4912H46.7224V21.4423H48.5212V22.9482H48.5554C48.8464 22.4457 49.2681 22.0316 49.7757 21.7497C50.2834 21.4679 50.8579 21.3289 51.4382 21.3476C53.736 21.3476 55.2507 23.164 55.2507 25.9697ZM53.3406 25.9697C53.3406 24.1367 52.3933 22.9316 50.948 22.9316C49.5281 22.9316 48.573 24.1621 48.573 25.9697C48.573 27.7939 49.5281 29.0156 50.948 29.0156C52.3933 29.0156 53.3406 27.8193 53.3406 25.9697Z" fill="white"/>
<path d="M65.2156 25.9697C65.2156 28.7832 63.7097 30.5908 61.4372 30.5908C60.8616 30.6209 60.2891 30.4883 59.7853 30.2081C59.2815 29.928 58.8668 29.5117 58.5886 29.0068H58.5456V33.4912H56.6872V21.4423H58.486V22.9482H58.5202C58.8112 22.4457 59.2329 22.0315 59.7405 21.7497C60.2482 21.4679 60.8227 21.3289 61.403 21.3476C63.7009 21.3476 65.2156 23.164 65.2156 25.9697ZM63.3054 25.9697C63.3054 24.1367 62.3581 22.9316 60.9128 22.9316C59.4929 22.9316 58.5378 24.1621 58.5378 25.9697C58.5378 27.7939 59.4929 29.0156 60.9128 29.0156C62.3581 29.0156 63.3054 27.8193 63.3054 25.9697Z" fill="white"/>
<path d="M71.8015 27.0362C71.9392 28.2676 73.1355 29.0762 74.7703 29.0762C76.3367 29.0762 77.4636 28.2676 77.4636 27.1572C77.4636 26.1934 76.7839 25.6162 75.1746 25.2207L73.5652 24.833C71.2849 24.2822 70.2263 23.2158 70.2263 21.4854C70.2263 19.3428 72.0935 17.8711 74.7449 17.8711C77.3689 17.8711 79.1677 19.3428 79.2283 21.4854H77.3523C77.24 20.2461 76.2155 19.4981 74.7185 19.4981C73.2214 19.4981 72.197 20.2549 72.197 21.3565C72.197 22.2344 72.8513 22.751 74.4519 23.1465L75.82 23.4824C78.3679 24.0849 79.4265 25.1084 79.4265 26.9248C79.4265 29.248 77.5759 30.7031 74.6325 30.7031C71.8786 30.7031 70.0193 29.2822 69.8991 27.0361L71.8015 27.0362Z" fill="white"/>
<path d="M83.4372 19.2998V21.4424H85.1589V22.9141H83.4372V27.9053C83.4372 28.6807 83.782 29.042 84.5388 29.042C84.7432 29.0384 84.9473 29.0241 85.1501 28.999V30.4619C84.8099 30.5255 84.464 30.5543 84.1179 30.5478C82.2849 30.5478 81.5701 29.8593 81.5701 28.1035V22.9141H80.2537V21.4424H81.57V19.2998H83.4372Z" fill="white"/>
<path d="M86.156 25.9697C86.156 23.1211 87.8338 21.3311 90.45 21.3311C93.075 21.3311 94.7449 23.1211 94.7449 25.9697C94.7449 28.8262 93.0838 30.6084 90.45 30.6084C87.8171 30.6084 86.156 28.8262 86.156 25.9697ZM92.8513 25.9697C92.8513 24.0156 91.9558 22.8623 90.45 22.8623C88.9441 22.8623 88.0496 24.0244 88.0496 25.9697C88.0496 27.9316 88.9441 29.0762 90.45 29.0762C91.9558 29.0762 92.8513 27.9316 92.8513 25.9697Z" fill="white"/>
<path d="M96.2771 21.4425H98.0496V22.9835H98.0926C98.2125 22.5022 98.4944 22.0769 98.891 21.779C99.2876 21.4811 99.7746 21.3288 100.27 21.3478C100.484 21.347 100.698 21.3703 100.907 21.4171V23.1554C100.637 23.0728 100.355 23.0348 100.072 23.0431C99.802 23.0321 99.5329 23.0797 99.283 23.1826C99.0332 23.2855 98.8086 23.4412 98.6246 23.6391C98.4406 23.837 98.3017 24.0724 98.2172 24.3291C98.1328 24.5857 98.1049 24.8576 98.1355 25.1261V30.4962H96.2771L96.2771 21.4425Z" fill="white"/>
<path d="M109.475 27.8369C109.225 29.4805 107.625 30.6084 105.577 30.6084C102.943 30.6084 101.308 28.8437 101.308 26.0127C101.308 23.1729 102.952 21.3311 105.499 21.3311C108.004 21.3311 109.579 23.0518 109.579 25.7969V26.4336H103.184V26.5459C103.155 26.8791 103.197 27.2148 103.307 27.5306C103.417 27.8464 103.593 28.1352 103.823 28.3778C104.054 28.6203 104.333 28.8111 104.643 28.9374C104.953 29.0637 105.286 29.1226 105.62 29.1103C106.059 29.1515 106.5 29.0498 106.876 28.8203C107.253 28.5909 107.546 28.246 107.711 27.8369L109.475 27.8369ZM103.193 25.1348H107.719C107.736 24.8352 107.691 24.5354 107.586 24.2541C107.481 23.9729 107.32 23.7164 107.111 23.5006C106.903 23.2849 106.652 23.1145 106.374 23.0003C106.097 22.8861 105.799 22.8305 105.499 22.8369C105.196 22.8351 104.896 22.8933 104.616 23.008C104.336 23.1227 104.082 23.2918 103.867 23.5054C103.653 23.7191 103.483 23.973 103.367 24.2527C103.251 24.5323 103.192 24.8321 103.193 25.1348Z" fill="white"/>
<path d="M36.8293 11.2534H37.6272C37.7645 11.2705 37.9039 11.259 38.0366 11.2195C38.1693 11.1801 38.2923 11.1136 38.398 11.0242C38.5037 10.9349 38.5897 10.8246 38.6507 10.7003C38.7117 10.576 38.7462 10.4405 38.7522 10.3022C38.7522 9.75193 38.3381 9.39646 37.636 9.39646C37.4953 9.3768 37.352 9.38553 37.2148 9.42214C37.0775 9.45875 36.9489 9.52249 36.8367 9.60961C36.7244 9.69672 36.6308 9.80544 36.5613 9.92935C36.4917 10.0533 36.4477 10.1898 36.4319 10.331H35.5559C35.571 10.0747 35.6386 9.82428 35.7547 9.59527C35.8708 9.36626 36.0327 9.16359 36.2305 8.99989C36.4283 8.83618 36.6577 8.71494 36.9043 8.64372C37.151 8.5725 37.4097 8.55282 37.6643 8.58591C38.8391 8.58591 39.6663 9.24362 39.6663 10.1904C39.669 10.5076 39.5629 10.8161 39.3656 11.0645C39.1684 11.3129 38.8918 11.486 38.5823 11.5551V11.6255C38.9493 11.6417 39.2949 11.8027 39.5436 12.073C39.7923 12.3434 39.9238 12.7013 39.9094 13.0683C39.8823 13.3322 39.8027 13.588 39.6754 13.8208C39.5481 14.0535 39.3756 14.2585 39.168 14.4237C38.9605 14.5889 38.722 14.7111 38.4667 14.7829C38.2113 14.8548 37.9442 14.875 37.6809 14.8423C37.4171 14.8782 37.1487 14.8607 36.8918 14.7907C36.6349 14.7208 36.3948 14.5998 36.1856 14.4351C35.9765 14.2703 35.8026 14.0651 35.6745 13.8317C35.5463 13.5983 35.4665 13.3415 35.4397 13.0766H36.3293C36.3831 13.6474 36.9075 14.0156 37.6809 14.0156C38.4543 14.0156 38.9592 13.6021 38.9592 13.0191C38.9592 12.4277 38.4836 12.0635 37.6526 12.0635H36.8293V11.2534Z" fill="white"/>
<path d="M40.9202 13.4243C40.9202 12.6138 41.5246 12.1465 42.595 12.0801L43.8147 12.0098V11.6211C43.8147 11.1455 43.5012 10.877 42.8928 10.877C42.3967 10.877 42.0539 11.0591 41.9543 11.3774H41.094C41.1848 10.604 41.9133 10.1079 42.9348 10.1079C44.0637 10.1079 44.7004 10.6699 44.7004 11.6211V14.6978H43.844V14.0649H43.7737C43.631 14.2919 43.4306 14.477 43.1929 14.6012C42.9553 14.7254 42.689 14.7843 42.4211 14.7719C42.2321 14.7916 42.041 14.7714 41.8603 14.7127C41.6795 14.654 41.5131 14.5581 41.3717 14.4311C41.2302 14.3042 41.117 14.149 41.0392 13.9756C40.9615 13.8021 40.9209 13.6144 40.9202 13.4243ZM43.8147 13.0395V12.6631L42.715 12.7334C42.0949 12.7749 41.8137 12.9858 41.8137 13.3828C41.8137 13.7881 42.1652 14.0239 42.6487 14.0239C42.7903 14.0383 42.9334 14.024 43.0694 13.9819C43.2054 13.9398 43.3316 13.8708 43.4404 13.7789C43.5492 13.6871 43.6384 13.5743 43.7027 13.4473C43.767 13.3202 43.8051 13.1816 43.8147 13.0395Z" fill="white"/>
<path d="M47.0588 10.9429V14.6978H46.1702V10.1948H49.135V10.9428L47.0588 10.9429Z" fill="white"/>
<path d="M54.5207 12.4443C54.5207 13.875 53.7971 14.7719 52.6604 14.7719C52.3813 14.791 52.1027 14.7299 51.8572 14.5959C51.6117 14.4619 51.4096 14.2606 51.2747 14.0156H51.2043V16.1948H50.3157V10.1948H51.1711V10.939H51.2375C51.3749 10.6854 51.5796 10.4747 51.8292 10.3302C52.0787 10.1857 52.3633 10.113 52.6516 10.1201C53.7971 10.1201 54.5207 11.0131 54.5207 12.4443ZM53.6067 12.4443C53.6067 11.4931 53.1565 10.9184 52.4036 10.9184C51.6556 10.9184 51.1877 11.5053 51.1877 12.4482C51.1877 13.3867 51.6555 13.9741 52.3997 13.9741C53.1565 13.9741 53.6067 13.3994 53.6067 12.4443Z" fill="white"/>
<path d="M55.7043 16.3106V15.5454C55.8005 15.5576 55.8974 15.5632 55.9943 15.562C56.1837 15.576 56.3715 15.5197 56.5218 15.4037C56.6721 15.2877 56.7743 15.1203 56.8088 14.9336L56.8752 14.7144L55.2453 10.1948H56.2131L57.342 13.7715H57.4123L58.5373 10.1948H59.4797L57.801 14.8838C57.4163 15.9795 56.9905 16.3311 56.0725 16.3311C55.9983 16.3311 55.7873 16.3228 55.7043 16.3106Z" fill="white"/>
<path d="M60.1721 13.4198H61.0569C61.1438 13.8168 61.5159 14.0238 62.0364 14.0238C62.6282 14.0238 62.9914 13.763 62.9914 13.3578C62.9914 12.9237 62.6653 12.7167 62.0364 12.7167H61.3625V12.0262H62.0246C62.5618 12.0262 62.8352 11.8197 62.8352 11.4432C62.8352 11.1127 62.5705 10.8602 62.0246 10.8602C61.5276 10.8602 61.1643 11.0712 61.1066 11.4267H60.2502C60.3143 11.0182 60.536 10.6512 60.8679 10.4045C61.1997 10.1579 61.6151 10.0514 62.0246 10.1078C63.095 10.1078 63.7073 10.5917 63.7073 11.3524C63.7123 11.5643 63.6444 11.7714 63.515 11.9392C63.3856 12.107 63.2025 12.2253 62.9963 12.2743V12.3446C63.2418 12.3763 63.4671 12.4969 63.6294 12.6837C63.7918 12.8705 63.88 13.1103 63.8772 13.3578C63.8772 14.2138 63.1487 14.7802 62.0364 14.7802C61.053 14.7801 60.2541 14.3295 60.1721 13.4198Z" fill="white"/>
<path d="M65.157 14.6978V10.1948H66.0378V13.292H66.1081L68.1833 10.1948H69.0642V14.6978H68.1833V11.584H68.1169L66.0378 14.6978L65.157 14.6978Z" fill="white"/>
<path d="M73.9167 10.9428H72.4987V14.6977H71.6091V10.9428H70.1911V10.1948H73.9167V10.9428Z" fill="white"/>
<path d="M78.7038 13.482C78.5827 13.8935 78.3209 14.2494 77.9641 14.4875C77.6073 14.7257 77.1782 14.8309 76.7517 14.7847C76.455 14.7926 76.1602 14.7358 75.8877 14.6182C75.6152 14.5007 75.3715 14.3253 75.1736 14.1041C74.9757 13.883 74.8283 13.6214 74.7416 13.3376C74.6549 13.0538 74.631 12.7545 74.6716 12.4605C74.6321 12.1656 74.6564 11.8657 74.7429 11.581C74.8294 11.2964 74.976 11.0336 75.1729 10.8105C75.3698 10.5874 75.6123 10.4093 75.884 10.2881C76.1557 10.1669 76.4503 10.1054 76.7478 10.108C78.0007 10.108 78.7576 10.964 78.7576 12.378V12.6881H75.5779V12.7379C75.5638 12.9032 75.5845 13.0696 75.6385 13.2264C75.6926 13.3832 75.7788 13.527 75.8918 13.6485C76.0047 13.77 76.1418 13.8665 76.2943 13.9318C76.4468 13.9972 76.6112 14.0299 76.7771 14.0279C76.9895 14.0533 77.2047 14.0149 77.3953 13.9177C77.5859 13.8205 77.7432 13.6689 77.8474 13.482L78.7038 13.482ZM75.5778 12.0308H77.8513C77.8625 11.8798 77.842 11.7281 77.7911 11.5854C77.7403 11.4427 77.6601 11.3123 77.5558 11.2024C77.4515 11.0926 77.3254 11.0058 77.1856 10.9475C77.0458 10.8893 76.8953 10.861 76.7439 10.8643C76.5901 10.8623 76.4375 10.891 76.2951 10.9489C76.1526 11.0068 76.0232 11.0926 75.9145 11.2014C75.8058 11.3101 75.7201 11.4396 75.6622 11.582C75.6044 11.7245 75.5757 11.8771 75.5778 12.0308Z" fill="white"/>
<path d="M82.4714 10.1948H84.5017C85.3826 10.1948 85.8992 10.6411 85.8992 11.3398C85.9005 11.5615 85.8257 11.777 85.6872 11.9501C85.5487 12.1233 85.355 12.2436 85.1384 12.291V12.3613C85.4014 12.3779 85.6479 12.4949 85.8271 12.6881C86.0063 12.8813 86.1045 13.1359 86.1013 13.3994C86.1013 14.185 85.5105 14.6977 84.5222 14.6977H82.4714V10.1948ZM83.3523 10.877V12.043H84.2331C84.7703 12.043 85.0271 11.8364 85.0271 11.4556C85.0271 11.1045 84.8035 10.8769 84.3318 10.8769L83.3523 10.877ZM83.3523 12.6963V14.0156H84.406C84.9314 14.0156 85.2127 13.7837 85.2127 13.3579C85.2127 12.9072 84.8943 12.6963 84.2947 12.6963L83.3523 12.6963Z" fill="white"/>
</g>
<defs>
<clipPath id="clip0_4_1750">
<rect width="119.664" height="40" fill="white" transform="translate(0.0910339)"/>
</clipPath>
</defs>
</svg>
